HIERARCHY
ROOT hip
{
  OFFSET 0 90.174 2.4664
  CHANNELS 6 Xposition Yposition Zposition Zrotation Xrotation Yrotation
  JOINT abdomen
  {
    OFFSET 0 -1.186 -1.5018
    CHANNELS 6 Xposition Yposition Zposition Zrotation Xrotation Yrotation
    JOINT abdomen2
    {
      OFFSET 0 9.964 0.2134
      CHANNELS 6 Xposition Yposition Zposition Zrotation Xrotation Yrotation
      JOINT chest
      {
        OFFSET 0 13.134 -3.2573
        CHANNELS 6 Xposition Yposition Zposition Zrotation Xrotation Yrotation
        JOINT neck
        {
          OFFSET 0 20.686 -1.6905
          CHANNELS 6 Xposition Yposition Zposition Zrotation Xrotation Yrotation
          JOINT head
          {
            OFFSET 0 7.238 -0.1237
            CHANNELS 6 Xposition Yposition Zposition Zrotation Xrotation Yrotation
            End Site
            {
              OFFSET 0 0 0
            }
          }
        }
        JOINT lCollar
        {
          OFFSET 1.7069 20.075 5.0056
          CHANNELS 6 Xposition Yposition Zposition Zrotation Xrotation Yrotation
          JOINT lShldr
          {
            OFFSET 13.6458 -0.047 -4.849
            CHANNELS 6 Xposition Yposition Zposition Zrotation Xrotation Yrotation
            JOINT lForeArm
            {
              OFFSET 28.3255 -0.9759 2.2888
              CHANNELS 6 Xposition Yposition Zposition Zrotation Xrotation Yrotation
              JOINT lHand
              {
                OFFSET 22.1583 -0.53 10.8316
                CHANNELS 6 Xposition Yposition Zposition Zrotation Xrotation Yrotation
                JOINT lThumb1
                {
                  OFFSET 0.786 0.112 2.5817
                  CHANNELS 6 Xposition Yposition Zposition Zrotation Xrotation Yrotation
                  JOINT lThumb2
                  {
                    OFFSET 0.3601 -0.878 4.2331
                    CHANNELS 6 Xposition Yposition Zposition Zrotation Xrotation Yrotation
                    JOINT lThumb2_End
                    {
                      OFFSET 1.8127 -1.216 2.2227
                      CHANNELS 6 Xposition Yposition Zposition Zrotation Xrotation Yrotation
                      End Site
                      {
                        OFFSET 0.0181 -0.0122 0.0222
                      }
                    }
                  }
                }
                JOINT lCarpal1
                {
                  OFFSET 0.9571 1.114 1.7695
                  CHANNELS 6 Xposition Yposition Zposition Zrotation Xrotation Yrotation
                  JOINT lIndex1
                  {
                    OFFSET 4.1246 0.487 4.1451
                    CHANNELS 6 Xposition Yposition Zposition Zrotation Xrotation Yrotation
                    JOINT lIndex2
                    {
                      OFFSET 3.4052 -1.454 2.7682
                      CHANNELS 6 Xposition Yposition Zposition Zrotation Xrotation Yrotation
                      JOINT lIndex2_End
                      {
                        OFFSET 1.4531 -1.795 1.2713
                        CHANNELS 6 Xposition Yposition Zposition Zrotation Xrotation Yrotation
                        End Site
                        {
                          OFFSET 0.0145 -0.0179 0.0127
                        }
                      }
                    }
                  }
                  JOINT lMid1
                  {
                    OFFSET 5.6954 0.21 2.1184
                    CHANNELS 6 Xposition Yposition Zposition Zrotation Xrotation Yrotation
                    JOINT lMid2
                    {
                      OFFSET 3.9766 -1.54 2.3863
                      CHANNELS 6 Xposition Yposition Zposition Zrotation Xrotation Yrotation
                      JOINT lMid2_End
                      {
                        OFFSET 1.4042 -1.926 1.125
                        CHANNELS 6 Xposition Yposition Zposition Zrotation Xrotation Yrotation
                        End Site
                        {
                          OFFSET 0.014 -0.0193 0.0113
                        }
                      }
                    }
                  }
                }
                JOINT lCarpal2
                {
                  OFFSET 2.0956 0.66 -0.3894
                  CHANNELS 6 Xposition Yposition Zposition Zrotation Xrotation Yrotation
                  JOINT lRing1
                  {
                    OFFSET 5.0395 -0.09 2.4971
                    CHANNELS 6 Xposition Yposition Zposition Zrotation Xrotation Yrotation
                    JOINT lRing2
                    {
                      OFFSET 3.7921 -1.552 1.4806
                      CHANNELS 6 Xposition Yposition Zposition Zrotation Xrotation Yrotation
                      JOINT lRing2_End
                      {
                        OFFSET 1.4655 -1.808 0.9609
                        CHANNELS 6 Xposition Yposition Zposition Zrotation Xrotation Yrotation
                        End Site
                        {
                          OFFSET 0.0147 -0.0181 0.0096
                        }
                      }
                    }
                  }
                  JOINT lPinky1
                  {
                    OFFSET 4.9141 -1.269 0.3591
                    CHANNELS 6 Xposition Yposition Zposition Zrotation Xrotation Yrotation
                    JOINT lPinky2
                    {
                      OFFSET 3.1477 -1.685 0.8462
                      CHANNELS 6 Xposition Yposition Zposition Zrotation Xrotation Yrotation
                      JOINT lPinky2_End
                      {
                        OFFSET 0.8055 -1.585 0.7955
                        CHANNELS 6 Xposition Yposition Zposition Zrotation Xrotation Yrotation
                        End Site
                        {
                          OFFSET 0.0081 -0.0158 0.008
                        }
                      }
                    }
                  }
                }
              }
            }
          }
        }
        JOINT rCollar
        {
          OFFSET -1.7069 20.075 5.0056
          CHANNELS 6 Xposition Yposition Zposition Zrotation Xrotation Yrotation
          JOINT rShldr
          {
            OFFSET -13.6458 -0.047 -4.849
            CHANNELS 6 Xposition Yposition Zposition Zrotation Xrotation Yrotation
            JOINT rForeArm
            {
              OFFSET -28.3255 -0.9759 2.2888
              CHANNELS 6 Xposition Yposition Zposition Zrotation Xrotation Yrotation
              JOINT rHand
              {
                OFFSET -22.1583 -0.53 10.8316
                CHANNELS 6 Xposition Yposition Zposition Zrotation Xrotation Yrotation
                JOINT rThumb1
                {
                  OFFSET -0.786 0.112 2.5817
                  CHANNELS 6 Xposition Yposition Zposition Zrotation Xrotation Yrotation
                  JOINT rThumb2
                  {
                    OFFSET -0.3601 -0.878 4.2331
                    CHANNELS 6 Xposition Yposition Zposition Zrotation Xrotation Yrotation
                    JOINT rThumb2_End
                    {
                      OFFSET -1.8127 -1.216 2.2227
                      CHANNELS 6 Xposition Yposition Zposition Zrotation Xrotation Yrotation
                      End Site
                      {
                        OFFSET -0.0181 -0.0122 0.0222
                      }
                    }
                  }
                }
                JOINT rCarpal1
                {
                  OFFSET -0.9571 1.114 1.7695
                  CHANNELS 6 Xposition Yposition Zposition Zrotation Xrotation Yrotation
                  JOINT rIndex1
                  {
                    OFFSET -4.1246 0.487 4.1451
                    CHANNELS 6 Xposition Yposition Zposition Zrotation Xrotation Yrotation
                    JOINT rIndex2
                    {
                      OFFSET -3.4052 -1.454 2.7682
                      CHANNELS 6 Xposition Yposition Zposition Zrotation Xrotation Yrotation
                      JOINT rIndex2_End
                      {
                        OFFSET -1.4531 -1.795 1.2713
                        CHANNELS 6 Xposition Yposition Zposition Zrotation Xrotation Yrotation
                        End Site
                        {
                          OFFSET -0.0145 -0.018 0.0127
                        }
                      }
                    }
                  }
                  JOINT rMid1
                  {
                    OFFSET -5.6954 0.21 2.1184
                    CHANNELS 6 Xposition Yposition Zposition Zrotation Xrotation Yrotation
                    JOINT rMid2
                    {
                      OFFSET -3.9766 -1.54 2.3863
                      CHANNELS 6 Xposition Yposition Zposition Zrotation Xrotation Yrotation
                      JOINT rMid2_End
                      {
                        OFFSET -1.4042 -1.926 1.125
                        CHANNELS 6 Xposition Yposition Zposition Zrotation Xrotation Yrotation
                        End Site
                        {
                          OFFSET -0.014 -0.0193 0.0113
                        }
                      }
                    }
                  }
                }
                JOINT rCarpal2
                {
                  OFFSET -2.0956 0.66 -0.3894
                  CHANNELS 6 Xposition Yposition Zposition Zrotation Xrotation Yrotation
                  JOINT rRing1
                  {
                    OFFSET -5.0395 -0.09 2.4971
                    CHANNELS 6 Xposition Yposition Zposition Zrotation Xrotation Yrotation
                    JOINT rRing2
                    {
                      OFFSET -3.7921 -1.552 1.4806
                      CHANNELS 6 Xposition Yposition Zposition Zrotation Xrotation Yrotation
                      JOINT rRing2_End
                      {
                        OFFSET -1.4655 -1.808 0.9609
                        CHANNELS 6 Xposition Yposition Zposition Zrotation Xrotation Yrotation
                        End Site
                        {
                          OFFSET -0.0147 -0.0181 0.0096
                        }
                      }
                    }
                  }
                  JOINT rPinky1
                  {
                    OFFSET -4.9141 -1.269 0.3592
                    CHANNELS 6 Xposition Yposition Zposition Zrotation Xrotation Yrotation
                    JOINT rPinky2
                    {
                      OFFSET -3.1477 -1.685 0.8462
                      CHANNELS 6 Xposition Yposition Zposition Zrotation Xrotation Yrotation
                      JOINT rPinky2_End
                      {
                        OFFSET -0.8055 -1.585 0.7955
                        CHANNELS 6 Xposition Yposition Zposition Zrotation Xrotation Yrotation
                        End Site
                        {
                          OFFSET -0.0081 -0.0158 0.008
                        }
                      }
                    }
                  }
                }
              }
            }
          }
        }
      }
    }
  }
  JOINT lThigh
  {
    OFFSET 8.367 -8.2066 0.5982
    CHANNELS 6 Xposition Yposition Zposition Zrotation Xrotation Yrotation
    JOINT lShin
    {
      OFFSET 2.1923 -43.463 -0.4932
      CHANNELS 6 Xposition Yposition Zposition Zrotation Xrotation Yrotation
      JOINT lFoot
      {
        OFFSET 0.7333 -45.8593 -2.6451
        CHANNELS 6 Xposition Yposition Zposition Zrotation Xrotation Yrotation
        End Site
        {
          OFFSET 2.6618 -4.2699 12.3931
        }
      }
    }
  }
  JOINT rThigh
  {
    OFFSET -8.367 -8.2066 0.5982
    CHANNELS 6 Xposition Yposition Zposition Zrotation Xrotation Yrotation
    JOINT rShin
    {
      OFFSET -2.1923 -43.463 -0.4931
      CHANNELS 6 Xposition Yposition Zposition Zrotation Xrotation Yrotation
      JOINT rFoot
      {
        OFFSET -0.7333 -45.8593 -2.6451
        CHANNELS 6 Xposition Yposition Zposition Zrotation Xrotation Yrotation
        End Site
        {
          OFFSET -2.6618 -4.2699 12.3931
        }
      }
    }
  }
}
MOTION
Frames:	4
Frame Time:	0.0333333
0 90.174 2.4664 0 0 -0 0 -1.186 -1.5018 0 0 -0 0 9.964 0.2134 0 0 -0 0 13.134 -3.2573 0 0 -0 0 20.686 -1.6905 0 0 -0 0 7.238 -0.1237 0 0 -0 1.7069 20.075 5.0056 0 0 -0 13.6458 -0.047 -4.849 1.66051 0.0835086 5.75766 28.3255 -0.9759 2.2888 -0.0175111 0.895433 15.7816 22.1583 -0.53 10.8316 7.95139e-016 -1.98785e-016 -0 0.786 0.112 2.5817 5.46658e-016 -3.97569e-016 -0 0.3601 -0.878 4.2331 5.96354e-016 0 -0 1.8127 -1.216 2.2227 3.97569e-016 1.98785e-016 9.54166e-015 0.9571 1.114 1.7695 1.49089e-016 -3.97569e-016 -0 4.1246 0.487 4.1451 6.4605e-016 0 3.18055e-015 3.4052 -1.454 2.7682 5.96354e-016 0 3.18055e-015 1.4531 -1.795 1.2713 8.94531e-016 -1.98785e-016 6.36111e-015 5.6954 0.21 2.1184 6.4605e-016 0 3.18055e-015 3.9766 -1.54 2.3863 5.96354e-016 0 3.18055e-015 1.4042 -1.926 1.125 8.94531e-016 -1.98785e-016 6.36111e-015 2.0956 0.66 -0.3894 1.49089e-016 -3.97569e-016 -0 5.0395 -0.09 2.4971 6.4605e-016 0 3.18055e-015 3.7921 -1.552 1.4806 5.96354e-016 0 3.18055e-015 1.4655 -1.808 0.9609 8.94531e-016 -1.98785e-016 6.36111e-015 4.9141 -1.269 0.3591 6.4605e-016 0 3.18055e-015 3.1477 -1.685 0.8462 5.96354e-016 0 3.18055e-015 0.8055 -1.585 0.7955 8.94531e-016 -1.98785e-016 6.36111e-015 -1.7069 20.075 5.0056 0 0 -0 -13.6458 -0.047 -4.849 -1.4496 0.0636048 -5.0245 -28.3255 -0.9759 2.2888 -1.74811 1.20616 -16.8394 -22.1583 -0.53 10.8316 -1.19271e-015 1.98785e-016 -3.18055e-015 -0.786 0.112 2.5817 -3.97569e-016 1.98785e-016 -3.18055e-015 -0.3601 -0.878 4.2331 -2.98177e-016 1.98785e-016 -3.18055e-015 -1.8127 -1.216 2.2227 -2.98177e-016 3.97569e-016 -0 -0.9571 1.114 1.7695 4.96962e-016 0 -6.36111e-015 -4.1246 0.487 4.1451 -9.93923e-017 3.97569e-016 -0 -3.4052 -1.454 2.7682 -8.94531e-016 5.96354e-016 -0 -1.4531 -1.795 1.2713 -3.97569e-016 3.97569e-016 -0 -5.6954 0.21 2.1184 -9.93923e-017 3.97569e-016 -0 -3.9766 -1.54 2.3863 -8.94531e-016 5.96354e-016 -0 -1.4042 -1.926 1.125 -3.97569e-016 3.97569e-016 -0 -2.0956 0.66 -0.3894 4.96962e-016 0 -6.36111e-015 -5.0395 -0.09 2.4971 -9.93923e-017 3.97569e-016 -0 -3.7921 -1.552 1.4806 -8.94531e-016 5.96354e-016 -0 -1.4655 -1.808 0.9609 -3.97569e-016 3.97569e-016 -0 -4.9141 -1.269 0.3592 -9.93923e-017 3.97569e-016 -0 -3.1477 -1.685 0.8462 -8.94531e-016 5.96354e-016 -0 -0.8055 -1.585 0.7955 -3.97569e-016 3.97569e-016 -0 8.367 -8.2066 0.5982 -4.66115 -1.03232 0.120763 2.1923 -43.463 -0.4932 0.00990601 1.55097 0.177175 0.7333 -45.8593 -2.6451 4.65196 -0.54114 -0.255042 -8.367 -8.2066 0.5982 4.66115 -1.03222 -0.120763 -2.1923 -43.463 -0.4931 -0.00990459 1.5509 -0.177176 -0.7333 -45.8593 -2.6451 -4.65196 -0.541171 0.255041 
0.000349325 -2.87607 55.1018 -180 -85.9956 -180 0 -1.186 -1.5018 -0.0395856 0.646264 -0.10083 3.46945e-018 9.964 0.2134 -0.0780411 1.29262 -0.201233 -1.38778e-017 13.134 -3.2573 -0.0780412 1.2926 -0.201233 -2.77556e-017 20.686 -1.6905 2.89198e-006 25.9981 5.8434e-005 1.38778e-017 7.238 -0.1237 -6.11916e-008 4.99721 -8.38712e-009 1.7069 20.075 5.0056 -0.207365 -9.09205 -1.13028 13.6458 -0.047 -4.849 -0.142088 -13.5306 -70.4203 28.3255 -0.9759 2.2888 -21.8308 -22.368 -17.6355 22.1583 -0.53 10.8316 -27.2219 -41.1752 4.25114 0.786 0.112 2.5817 7.95139e-016 -6.36111e-015 -6.36111e-015 0.3601 -0.878 4.2331 1.59028e-015 3.18055e-015 -0 1.8127 -1.216 2.2227 -8.83961e-008 2.04607e-006 2.61714e-006 0.9571 1.114 1.7695 -7.95139e-016 -6.36111e-015 -9.54166e-015 4.1246 0.487 4.1451 -7.95139e-016 0 3.18055e-015 3.4052 -1.454 2.7682 2.38542e-015 -3.18055e-015 3.18055e-015 1.4531 -1.795 1.2713 -8.83961e-008 2.04607e-006 2.61714e-006 5.6954 0.21 2.1184 -7.95139e-016 0 3.18055e-015 3.9766 -1.54 2.3863 2.38542e-015 -3.18055e-015 3.18055e-015 1.4042 -1.926 1.125 -8.83961e-008 2.04607e-006 2.61714e-006 2.0956 0.66 -0.3894 -7.95139e-016 -6.36111e-015 -9.54166e-015 5.0395 -0.09 2.4971 -7.95139e-016 0 3.18055e-015 3.7921 -1.552 1.4806 2.38542e-015 -3.18055e-015 3.18055e-015 1.4655 -1.808 0.9609 -8.83961e-008 2.04607e-006 2.61714e-006 4.9141 -1.269 0.3591 -7.95139e-016 0 3.18055e-015 3.1477 -1.685 0.8462 2.38542e-015 -3.18055e-015 3.18055e-015 0.8055 -1.585 0.7955 -8.83961e-008 2.04607e-006 2.61714e-006 -1.7069 20.075 5.0056 0.203617 -9.0921 1.12659 -13.6458 -0.047 -4.849 0.210368 -13.3327 71.1658 -28.3255 -0.9759 2.2888 19.7248 -23.2344 15.9135 -22.1583 -0.53 10.8316 26.9027 -40.8953 -5.67344 -0.786 0.112 2.5817 2.38542e-015 3.18055e-015 -0 -0.3601 -0.878 4.2331 5.50684e-009 -1.21362e-006 1.15064e-006 -1.8127 -1.216 2.2227 -4.44816e-008 -1.05333e-006 1.28231e-006 -0.9571 1.114 1.7695 2.38542e-015 3.18055e-015 -0 -4.1246 0.487 4.1451 4.77083e-015 3.18055e-015 9.54166e-015 -3.4052 -1.454 2.7682 5.50684e-009 -1.21362e-006 1.15064e-006 -1.4531 -1.795 1.2713 -4.44816e-008 -1.05333e-006 1.28231e-006 -5.6954 0.21 2.1184 4.77083e-015 3.18055e-015 9.54166e-015 -3.9766 -1.54 2.3863 5.50684e-009 -1.21362e-006 1.15064e-006 -1.4042 -1.926 1.125 -4.44816e-008 -1.05333e-006 1.28231e-006 -2.0956 0.66 -0.3894 2.38542e-015 3.18055e-015 -0 -5.0395 -0.09 2.4971 4.77083e-015 3.18055e-015 9.54166e-015 -3.7921 -1.552 1.4806 5.50684e-009 -1.21362e-006 1.15064e-006 -1.4655 -1.808 0.9609 -4.44816e-008 -1.05333e-006 1.28231e-006 -4.9141 -1.269 0.3592 4.77083e-015 3.18055e-015 9.54166e-015 -3.1477 -1.685 0.8462 5.50684e-009 -1.21362e-006 1.15064e-006 -0.8055 -1.585 0.7955 -4.44816e-008 -1.05333e-006 1.28231e-006 8.367 -8.2066 0.5982 94.85 -56.7556 124.196 2.1923 -43.463 -0.4932 -11.3976 -1.22314 -8.43388 0.7333 -45.8593 -2.6451 18.8515 9.69962 -18.6822 -8.367 -8.2066 0.5982 -94.8238 -56.7599 -124.173 -2.1923 -43.463 -0.4931 11.3938 -1.25778 8.43579 -0.7333 -45.8593 -2.6451 -18.8522 9.71578 18.6808 
0.000383272 -2.87894 55.0802 -180 -85.9956 -180 0 -1.186 -1.5018 -0.0400459 0.801636 -0.100554 0 9.964 0.2134 -0.0786961 1.60335 -0.200578 0 13.134 -3.2573 -0.0786961 1.60334 -0.200578 -1.38778e-017 20.686 -1.6905 5.6264e-006 23.9199 -7.1929e-006 1.38778e-017 7.238 -0.1237 -3.77855e-008 2.81291 1.06334e-007 1.7069 20.075 5.0056 -0.424447 -9.79307 -0.0849677 13.6458 -0.047 -4.849 -0.15389 -13.6041 -70.7371 28.3255 -0.9759 2.2888 -22.6535 -21.7727 -19.4093 22.1583 -0.53 10.8316 -26.169 -41.7615 4.99092 0.786 0.112 2.5817 1.25436e-006 9.5874e-007 7.13521e-007 0.3601 -0.878 4.2331 -4.29917e-007 9.00139e-007 3.51342e-006 1.8127 -1.216 2.2227 -4.35109e-008 1.02285e-006 1.30921e-006 0.9571 1.114 1.7695 0 0 -0 4.1246 0.487 4.1451 1.25436e-006 9.5874e-007 7.13521e-007 3.4052 -1.454 2.7682 -4.29917e-007 9.00139e-007 3.51342e-006 1.4531 -1.795 1.2713 -4.35109e-008 1.02285e-006 1.30921e-006 5.6954 0.21 2.1184 1.25436e-006 9.5874e-007 7.13521e-007 3.9766 -1.54 2.3863 -4.29917e-007 9.00139e-007 3.51342e-006 1.4042 -1.926 1.125 -4.35109e-008 1.02285e-006 1.30921e-006 2.0956 0.66 -0.3894 0 0 -0 5.0395 -0.09 2.4971 1.25436e-006 9.5874e-007 7.13521e-007 3.7921 -1.552 1.4806 -4.29917e-007 9.00139e-007 3.51342e-006 1.4655 -1.808 0.9609 -4.35109e-008 1.02285e-006 1.30921e-006 4.9141 -1.269 0.3591 1.25436e-006 9.5874e-007 7.13521e-007 3.1477 -1.685 0.8462 -4.29917e-007 9.00139e-007 3.51342e-006 0.8055 -1.585 0.7955 -4.35109e-008 1.02285e-006 1.30921e-006 -1.7069 20.075 5.0056 0.422544 -9.78927 0.0627243 -13.6458 -0.047 -4.849 0.218404 -13.4047 71.4801 -28.3255 -0.9759 2.2888 20.5854 -22.6988 17.723 -22.1583 -0.53 10.8316 25.8518 -41.4683 -6.41306 -0.786 0.112 2.5817 3.18225e-006 8.04138e-007 9.71922e-007 -0.3601 -0.878 4.2331 9.62225e-006 4.05767e-006 3.21322e-006 -1.8127 -1.216 2.2227 5.97679e-009 -1.21356e-006 1.15129e-006 -0.9571 1.114 1.7695 5.56597e-015 3.18055e-015 -6.36111e-015 -4.1246 0.487 4.1451 3.18225e-006 8.04138e-007 9.71922e-007 -3.4052 -1.454 2.7682 9.62225e-006 4.05767e-006 3.21322e-006 -1.4531 -1.795 1.2713 5.97679e-009 -1.21356e-006 1.15129e-006 -5.6954 0.21 2.1184 3.18225e-006 8.04138e-007 9.71922e-007 -3.9766 -1.54 2.3863 9.62225e-006 4.05767e-006 3.21322e-006 -1.4042 -1.926 1.125 5.97679e-009 -1.21356e-006 1.15129e-006 -2.0956 0.66 -0.3894 5.56597e-015 3.18055e-015 -6.36111e-015 -5.0395 -0.09 2.4971 3.18225e-006 8.04138e-007 9.71922e-007 -3.7921 -1.552 1.4806 9.62225e-006 4.05767e-006 3.21322e-006 -1.4655 -1.808 0.9609 5.97679e-009 -1.21356e-006 1.15129e-006 -4.9141 -1.269 0.3592 3.18225e-006 8.04138e-007 9.71922e-007 -3.1477 -1.685 0.8462 9.62225e-006 4.05767e-006 3.21322e-006 -0.8055 -1.585 0.7955 5.97679e-009 -1.21356e-006 1.15129e-006 8.367 -8.2066 0.5982 94.4928 -56.6451 123.886 2.1923 -43.463 -0.4932 -10.8261 -1.48934 -8.48686 0.7333 -45.8593 -2.6451 18.8121 10.3976 -18.7747 -8.367 -8.2066 0.5982 -94.4951 -56.6383 -123.888 -2.1923 -43.463 -0.4931 10.8221 -1.48784 8.48264 -0.7333 -45.8593 -2.6451 -18.8148 10.3969 18.7713 
0.000413967 -2.88178 55.0582 -180 -85.9956 -180 0 -1.186 -1.5018 -0.0405111 0.957108 -0.100288 3.46945e-018 9.964 0.2134 -0.0793628 1.91431 -0.19994 0 13.134 -3.2573 -0.0793628 1.91429 -0.19994 0 20.686 -1.6905 4.27697e-006 21.8296 -3.90911e-006 -1.38778e-017 7.238 -0.1237 6.6319e-008 0.615478 -1.74198e-007 1.7069 20.075 5.0056 -0.62934 -10.4998 0.962195 13.6458 -0.047 -4.849 -0.166119 -13.6775 -71.054 28.3255 -0.9759 2.2888 -23.4556 -21.1518 -21.1731 22.1583 -0.53 10.8316 -25.095 -42.3381 5.75287 0.786 0.112 2.5817 -1.84346e-006 -2.93132e-006 8.15902e-007 0.3601 -0.878 4.2331 -3.35274e-006 3.4705e-006 -2.29744e-006 1.8127 -1.216 2.2227 -3.47526e-007 -2.33247e-006 -2.87101e-007 0.9571 1.114 1.7695 -3.18055e-015 0 -3.18055e-015 4.1246 0.487 4.1451 -1.84346e-006 -2.93132e-006 8.15902e-007 3.4052 -1.454 2.7682 -3.35274e-006 3.4705e-006 -2.29744e-006 1.4531 -1.795 1.2713 -3.47526e-007 -2.33247e-006 -2.87101e-007 5.6954 0.21 2.1184 -1.84346e-006 -2.93132e-006 8.15902e-007 3.9766 -1.54 2.3863 -3.35274e-006 3.4705e-006 -2.29744e-006 1.4042 -1.926 1.125 -3.47526e-007 -2.33247e-006 -2.87101e-007 2.0956 0.66 -0.3894 -3.18055e-015 0 -3.18055e-015 5.0395 -0.09 2.4971 -1.84346e-006 -2.93132e-006 8.15902e-007 3.7921 -1.552 1.4806 -3.35274e-006 3.4705e-006 -2.29744e-006 1.4655 -1.808 0.9609 -3.47526e-007 -2.33247e-006 -2.87101e-007 4.9141 -1.269 0.3591 -1.84346e-006 -2.93132e-006 8.15902e-007 3.1477 -1.685 0.8462 -3.35274e-006 3.4705e-006 -2.29744e-006 0.8055 -1.585 0.7955 -3.47526e-007 -2.33247e-006 -2.87101e-007 -1.7069 20.075 5.0056 0.629207 -10.4923 -1.00296 -13.6458 -0.047 -4.849 0.226823 -13.4766 71.7946 -28.3255 -0.9759 2.2888 21.4272 -22.1363 19.5234 -22.1583 -0.53 10.8316 24.7803 -42.0316 -7.17419 -0.786 0.112 2.5817 7.95139e-016 0 3.18055e-015 -0.3601 -0.878 4.2331 -4.83378e-007 -8.22635e-007 3.62008e-006 -1.8127 -1.216 2.2227 -7.95139e-016 9.54166e-015 -6.36111e-015 -0.9571 1.114 1.7695 -0 0 3.18055e-015 -4.1246 0.487 4.1451 3.18055e-015 6.36111e-015 6.36111e-015 -3.4052 -1.454 2.7682 -4.83378e-007 -8.22635e-007 3.62008e-006 -1.4531 -1.795 1.2713 7.95139e-016 9.54166e-015 -6.36111e-015 -5.6954 0.21 2.1184 3.18055e-015 6.36111e-015 6.36111e-015 -3.9766 -1.54 2.3863 -4.83378e-007 -8.22635e-007 3.62008e-006 -1.4042 -1.926 1.125 7.95139e-016 9.54166e-015 -6.36111e-015 -2.0956 0.66 -0.3894 -0 0 3.18055e-015 -5.0395 -0.09 2.4971 3.18055e-015 6.36111e-015 6.36111e-015 -3.7921 -1.552 1.4806 -4.83378e-007 -8.22635e-007 3.62008e-006 -1.4655 -1.808 0.9609 7.95139e-016 9.54166e-015 -6.36111e-015 -4.9141 -1.269 0.3592 3.18055e-015 6.36111e-015 6.36111e-015 -3.1477 -1.685 0.8462 -4.83378e-007 -8.22635e-007 3.62008e-006 -0.8055 -1.585 0.7955 7.95139e-016 9.54166e-015 -6.36111e-015 8.367 -8.2066 0.5982 94.1856 -56.5185 123.63 2.1923 -43.463 -0.4932 -10.2493 -1.69361 -8.53397 0.7333 -45.8593 -2.6451 18.7748 11.0669 -18.8631 -8.367 -8.2066 0.5982 -94.1839 -56.5127 -123.629 -2.1923 -43.463 -0.4931 10.2453 -1.69782 8.53072 -0.7333 -45.8593 -2.6451 -18.7771 11.0699 18.8602 
